<?xml version="1.0" encoding="UTF-8" standalone="no"?>
<!-- Created with Inkscape (http://www.inkscape.org/) -->

<svg
   xmlns:dc="http://purl.org/dc/elements/1.1/"
   xmlns:cc="http://creativecommons.org/ns#"
   xmlns:rdf="http://www.w3.org/1999/02/22-rdf-syntax-ns#"
   xmlns:svg="http://www.w3.org/2000/svg"
   xmlns="http://www.w3.org/2000/svg"
   xmlns:sodipodi="http://sodipodi.sourceforge.net/DTD/sodipodi-0.dtd"
   xmlns:inkscape="http://www.inkscape.org/namespaces/inkscape"
   width="210mm"
   height="297mm"
   viewBox="0 0 210 297"
   version="1.1"
   id="svg8"
   inkscape:version="0.92.1 r15371"
   sodipodi:docname="logo.svg">
  <defs
     id="defs2">
    <inkscape:path-effect
       effect="bspline"
       id="path-effect4535"
       is_visible="true"
       weight="33.333333"
       steps="2"
       helper_size="0"
       apply_no_weight="true"
       apply_with_weight="true"
       only_selected="false" />
    <inkscape:path-effect
       effect="simplify"
       id="path-effect4533"
       is_visible="true"
       steps="1"
       threshold="0.0123649"
       smooth_angles="360"
       helper_size="0"
       simplify_individual_paths="false"
       simplify_just_coalesce="false"
       simplifyindividualpaths="false"
       simplifyJustCoalesce="false" />
    <inkscape:path-effect
       effect="bspline"
       id="path-effect4529"
       is_visible="true"
       weight="33.333333"
       steps="2"
       helper_size="0"
       apply_no_weight="true"
       apply_with_weight="true"
       only_selected="false" />
    <inkscape:path-effect
       effect="simplify"
       id="path-effect4527"
       is_visible="true"
       steps="1"
       threshold="0.0123649"
       smooth_angles="360"
       helper_size="0"
       simplify_individual_paths="false"
       simplify_just_coalesce="false"
       simplifyindividualpaths="false"
       simplifyJustCoalesce="false" />
    <inkscape:path-effect
       effect="bspline"
       id="path-effect4523"
       is_visible="true"
       weight="33.333333"
       steps="2"
       helper_size="0"
       apply_no_weight="true"
       apply_with_weight="true"
       only_selected="false" />
    <inkscape:path-effect
       effect="simplify"
       id="path-effect4521"
       is_visible="true"
       steps="1"
       threshold="0.0123649"
       smooth_angles="360"
       helper_size="0"
       simplify_individual_paths="false"
       simplify_just_coalesce="false"
       simplifyindividualpaths="false"
       simplifyJustCoalesce="false" />
    <inkscape:path-effect
       effect="bspline"
       id="path-effect4517"
       is_visible="true"
       weight="33.333333"
       steps="2"
       helper_size="0"
       apply_no_weight="true"
       apply_with_weight="true"
       only_selected="false" />
    <inkscape:path-effect
       effect="simplify"
       id="path-effect4515"
       is_visible="true"
       steps="1"
       threshold="0.0123649"
       smooth_angles="360"
       helper_size="0"
       simplify_individual_paths="false"
       simplify_just_coalesce="false"
       simplifyindividualpaths="false"
       simplifyJustCoalesce="false" />
    <inkscape:path-effect
       effect="bspline"
       id="path-effect4511"
       is_visible="true"
       weight="33.333333"
       steps="2"
       helper_size="0"
       apply_no_weight="true"
       apply_with_weight="true"
       only_selected="false" />
    <inkscape:path-effect
       effect="simplify"
       id="path-effect4509"
       is_visible="true"
       steps="1"
       threshold="0.0123649"
       smooth_angles="360"
       helper_size="0"
       simplify_individual_paths="false"
       simplify_just_coalesce="false"
       simplifyindividualpaths="false"
       simplifyJustCoalesce="false" />
    <inkscape:path-effect
       effect="bspline"
       id="path-effect4505"
       is_visible="true"
       weight="33.333333"
       steps="2"
       helper_size="0"
       apply_no_weight="true"
       apply_with_weight="true"
       only_selected="false" />
    <inkscape:path-effect
       effect="simplify"
       id="path-effect4503"
       is_visible="true"
       steps="1"
       threshold="0.0123649"
       smooth_angles="360"
       helper_size="0"
       simplify_individual_paths="false"
       simplify_just_coalesce="false"
       simplifyindividualpaths="false"
       simplifyJustCoalesce="false" />
    <inkscape:path-effect
       effect="bspline"
       id="path-effect4499"
       is_visible="true"
       weight="33.333333"
       steps="2"
       helper_size="0"
       apply_no_weight="true"
       apply_with_weight="true"
       only_selected="false" />
    <inkscape:path-effect
       effect="simplify"
       id="path-effect4497"
       is_visible="true"
       steps="1"
       threshold="0.0123649"
       smooth_angles="360"
       helper_size="0"
       simplify_individual_paths="false"
       simplify_just_coalesce="false"
       simplifyindividualpaths="false"
       simplifyJustCoalesce="false" />
    <inkscape:path-effect
       effect="bspline"
       id="path-effect4493"
       is_visible="true"
       weight="33.333333"
       steps="2"
       helper_size="0"
       apply_no_weight="true"
       apply_with_weight="true"
       only_selected="false" />
    <inkscape:path-effect
       effect="simplify"
       id="path-effect4491"
       is_visible="true"
       steps="1"
       threshold="0.0123649"
       smooth_angles="360"
       helper_size="0"
       simplify_individual_paths="false"
       simplify_just_coalesce="false"
       simplifyindividualpaths="false"
       simplifyJustCoalesce="false" />
  </defs>
  <sodipodi:namedview
     id="base"
     pagecolor="#ffffff"
     bordercolor="#666666"
     borderopacity="1.0"
     inkscape:pageopacity="0.0"
     inkscape:pageshadow="2"
     inkscape:zoom="1.4"
     inkscape:cx="293.93308"
     inkscape:cy="337.12147"
     inkscape:document-units="mm"
     inkscape:current-layer="layer1"
     showgrid="false"
     inkscape:window-width="1920"
     inkscape:window-height="1017"
     inkscape:window-x="-8"
     inkscape:window-y="32"
     inkscape:window-maximized="1"
     inkscape:pagecheckerboard="true" />
  <metadata
     id="metadata5">
    <rdf:RDF>
      <cc:Work
         rdf:about="">
        <dc:format>image/svg+xml</dc:format>
        <dc:type
           rdf:resource="http://purl.org/dc/dcmitype/StillImage" />
        <dc:title />
      </cc:Work>
    </rdf:RDF>
  </metadata>
  <g
     inkscape:groupmode="layer"
     id="layer2"
     inkscape:label="Layer 2">
    <rect
       style="opacity:1;fill:#ffffff;fill-opacity:1;fill-rule:nonzero;stroke:#fefefe;stroke-width:8;stroke-linecap:round;stroke-linejoin:round;stroke-miterlimit:4;stroke-dasharray:none;stroke-dashoffset:0;stroke-opacity:1;paint-order:stroke fill markers"
       id="rect4592"
       width="59.999966"
       height="60.000473"
       x="72.672546"
       y="203.52525"
       inkscape:export-xdpi="47.811783"
       inkscape:export-ydpi="47.811783" />
  </g>
  <g
     inkscape:label="Layer 1"
     inkscape:groupmode="layer"
     id="layer1">
    <text
       xml:space="preserve"
       style="font-style:normal;font-variant:normal;font-weight:normal;font-stretch:normal;font-size:35.27777863px;line-height:1.25;font-family:Arial;-inkscape-font-specification:Arial;letter-spacing:0px;word-spacing:0px;writing-mode:lr-tb;fill:#000000;fill-opacity:1;stroke:none;stroke-width:0.26458332"
       x="57.287197"
       y="106.10632"
       id="text4487"><tspan
         sodipodi:role="line"
         id="tspan4485"
         x="57.287197"
         y="106.10632"
         style="font-style:italic;font-variant:normal;font-weight:normal;font-stretch:normal;font-size:35.27777863px;font-family:Montserrat;-inkscape-font-specification:'Montserrat Italic';writing-mode:lr-tb;stroke-width:0.26458332">AIM</tspan></text>
    <path
       style="fill:none;stroke:#000000;stroke-width:2.5;stroke-linecap:butt;stroke-linejoin:miter;stroke-miterlimit:4;stroke-dasharray:none;stroke-opacity:1"
       d="m 146.17942,95.707652 c -9.70116,6.929328 -15.59081,-0.033 -8.66809,-6.54186 5.56097,-5.22851 16.09933,-5.76189 16.09933,-5.76189"
       id="path4539"
       inkscape:connector-curvature="0"
       sodipodi:nodetypes="csc" />
    <path
       sodipodi:nodetypes="csc"
       inkscape:connector-curvature="0"
       id="path4541"
       d="m 140.91222,93.159392 c 9.70116,-6.92934 15.5908,0.033 8.66809,6.54185 -5.56097,5.228508 -16.09934,5.761888 -16.09934,5.761888"
       style="fill:none;stroke:#000000;stroke-width:2.5;stroke-linecap:butt;stroke-linejoin:miter;stroke-miterlimit:4;stroke-dasharray:none;stroke-opacity:1" />
    <path
       sodipodi:type="star"
       style="opacity:1;fill:#000000;fill-opacity:1;fill-rule:nonzero;stroke:none;stroke-width:2.5;stroke-linecap:round;stroke-linejoin:miter;stroke-miterlimit:4;stroke-dasharray:none;stroke-dashoffset:0;stroke-opacity:1;paint-order:stroke fill markers"
       id="path4545"
       sodipodi:sides="3"
       sodipodi:cx="137.11087"
       sodipodi:cy="160.92857"
       sodipodi:r1="4.4482512"
       sodipodi:r2="2.2241256"
       sodipodi:arg1="1.3567356"
       sodipodi:arg2="2.4039332"
       inkscape:flatsided="true"
       inkscape:rounded="0"
       inkscape:randomized="0"
       d="m 138.05581,165.2753 -5.18179,-5.70175 7.52876,-1.63668 z"
       inkscape:transform-center-x="0.32219052"
       inkscape:transform-center-y="0.69203651"
       transform="matrix(0.81275569,0.62528541,-0.62528541,0.81275569,144.63481,-133.37495)" />
    <path
       transform="matrix(-0.81275573,-0.62528536,0.62528536,-0.81275573,142.45684,322.24199)"
       inkscape:transform-center-y="-0.69203328"
       inkscape:transform-center-x="-0.32219465"
       d="m 138.05581,165.2753 -5.18179,-5.70175 7.52876,-1.63668 z"
       inkscape:randomized="0"
       inkscape:rounded="0"
       inkscape:flatsided="true"
       sodipodi:arg2="2.4039332"
       sodipodi:arg1="1.3567356"
       sodipodi:r2="2.2241256"
       sodipodi:r1="4.4482512"
       sodipodi:cy="160.92857"
       sodipodi:cx="137.11087"
       sodipodi:sides="3"
       id="path4549"
       style="opacity:1;fill:#000000;fill-opacity:1;fill-rule:nonzero;stroke:none;stroke-width:2.5;stroke-linecap:round;stroke-linejoin:miter;stroke-miterlimit:4;stroke-dasharray:none;stroke-dashoffset:0;stroke-opacity:1;paint-order:stroke fill markers"
       sodipodi:type="star" />
    <g
       aria-label="AIMS"
       style="font-style:normal;font-variant:normal;font-weight:normal;font-stretch:normal;font-size:35.27777863px;line-height:1.25;font-family:'Eras Bold ITC';-inkscape-font-specification:'Eras Bold ITC';letter-spacing:0px;word-spacing:0px;writing-mode:lr-tb;fill:#000000;fill-opacity:1;stroke:none;stroke-width:0.26458332"
       id="text4583"
       inkscape:export-xdpi="133.65347"
       inkscape:export-ydpi="133.65347">
      <path
         d="m 62.516606,182.60864 1.429714,-2.48047 8.905572,-16.77761 0.947402,-1.87758 q 0.413411,-0.82682 1.154107,-2.37711 3.031684,0.0345 4.426948,0.0345 2.428792,0 4.495849,-0.0345 l 2.51492,7.18302 5.115967,13.81483 0.999078,2.51492 q -2.980008,-0.0345 -3.617351,-0.0345 -1.44694,0 -4.254693,0.0345 -0.757921,-2.8422 -2.187635,-6.68348 h -8.681641 q -1.498617,3.03168 -3.100586,6.68348 -3.203939,-0.0345 -3.927409,-0.0345 -1.309136,0 -4.220242,0.0345 z m 13.33252,-11.6961 h 5.357123 q -1.998155,-6.08059 -2.187635,-6.70071 -1.136882,2.53215 -1.929254,4.15134 z"
         style="font-size:35.27777863px;writing-mode:lr-tb;stroke-width:0.26458332;fill:#000000;fill-opacity:1"
         id="path4593" />
      <path
         d="m 94.400966,182.60864 q 0.999078,-13.83206 0.999078,-21.29069 l -0.01723,-2.22208 q 3.014459,0.0345 4.030762,0.0345 0.465088,0 3.70348,-0.0345 -0.31006,3.87573 -0.49954,7.33805 -0.24116,4.82313 -0.34451,9.02615 -0.10335,4.18579 -0.10335,7.14857 l -3.531227,-0.0345 q -1.033528,0 -4.237467,0.0345 z"
         style="font-size:35.27777863px;writing-mode:lr-tb;stroke-width:0.26458332"
         id="path4595" />
      <path
         d="m 105.99371,182.60864 0.43064,-3.47954 1.06798,-12.07506 0.53399,-7.95817 q 3.16949,0.0345 4.97816,0.0345 1.49862,0 4.58198,-0.0345 0.22393,1.48139 0.37896,2.25653 0.15503,0.75792 0.75792,2.99724 0.62012,2.22208 0.98185,3.8585 0.37896,1.6192 1.11966,5.56383 0.75792,-2.7044 1.37804,-4.65088 0.62011,-1.94648 1.55029,-4.42694 0.93018,-2.48047 1.17133,-3.23839 0.25838,-0.77515 0.68902,-2.35989 2.58382,0.0345 5.06429,0.0345 1.6881,0 4.68533,-0.0345 -0.32728,5.80498 -0.43063,9.97355 -0.22394,8.16487 -0.22394,11.23101 0,0.63734 0.0345,2.30821 -2.27377,-0.0345 -3.18672,-0.0345 -1.32636,0 -3.25561,0.0345 0.1378,-1.55029 0.34451,-7.3725 0.2067,-5.83944 0.2067,-7.45863 0,-0.70625 -0.0345,-1.96371 l -2.25654,7.01077 -3.23839,9.78407 q -2.23931,-0.0345 -3.08336,-0.0345 -1.06798,0 -3.27284,0.0345 l -2.11873,-9.47401 -1.24024,-5.04707 q -0.0689,-0.29283 -0.15503,-0.72347 -0.0861,-0.43063 -0.2756,-1.51584 l -0.43064,4.77146 -0.56844,9.78407 -0.0517,2.20486 q -2.37711,-0.0345 -3.03168,-0.0345 -0.89573,0 -3.10059,0.0345 z"
         style="font-size:35.27777863px;writing-mode:lr-tb;stroke-width:0.26458332"
         id="path4597" />
    </g>
    <path
       style="fill:#f0f0f0;fill-opacity:1;stroke:none;stroke-width:0.26458332px;stroke-linecap:butt;stroke-linejoin:miter;stroke-opacity:1"
       d="m 65.514441,180.87138 10.623965,-20.07862 1.570208,1.77067 -8.786487,18.30796 z"
       id="path4587"
       inkscape:connector-curvature="0"
       sodipodi:nodetypes="ccccc"
       inkscape:export-xdpi="133.65347"
       inkscape:export-ydpi="133.65347" />
    <path
       d="m 137.90308,182.24691 q -0.22393,-3.66903 -0.51676,-5.87389 1.92925,0.86127 3.42787,1.20578 1.51584,0.32729 2.65272,0.32729 1.49862,0 2.37712,-0.43064 0.89572,-0.44786 0.89572,-1.30914 0,-0.29283 -0.0861,-0.55121 -0.0861,-0.27561 -0.32728,-0.60289 -0.24116,-0.34451 -0.68902,-0.7407 l -3.23839,-2.82498 q -1.13688,-0.96462 -1.58474,-1.39526 -0.91295,-0.8785 -1.42972,-1.63642 -0.49954,-0.75792 -0.74069,-1.53307 -0.22393,-0.79237 -0.22393,-1.67087 0,-1.05075 0.36173,-2.04983 0.37896,-1.01631 1.11966,-1.8948 0.74069,-0.8785 1.9637,-1.51585 1.22301,-0.63734 2.61827,-0.86127 1.39527,-0.24116 2.87666,-0.24116 2.9111,0 6.33897,0.6718 0.0517,1.18855 0.12058,2.18763 0.0689,0.98185 0.32729,3.46232 -1.58475,-0.63734 -2.89388,-0.8785 -1.30914,-0.25838 -2.25654,-0.25838 -1.34359,0 -2.23931,0.49954 -0.8785,0.49954 -0.8785,1.24023 0,0.34451 0.1378,0.6718 0.1378,0.32728 0.51677,0.77515 0.37896,0.43063 0.99907,0.96462 0.62012,0.51677 1.94648,1.55029 l 1.24024,0.98186 q 0.55121,0.44786 1.18855,1.0852 0.63735,0.63734 1.10243,1.25746 0.46509,0.62012 0.70625,1.13688 0.25838,0.51677 0.37896,1.05076 0.12058,0.51676 0.12058,1.11965 0,1.5503 -0.7407,2.96279 -0.74069,1.39526 -2.10151,2.30821 -1.36081,0.89572 -2.99723,1.25746 -1.61919,0.36174 -3.42787,0.36174 -2.79053,0 -7.04522,-0.8096 z"
       style="font-style:normal;font-variant:normal;font-weight:normal;font-stretch:normal;font-size:35.27777863px;line-height:1.25;font-family:'Eras Bold ITC';-inkscape-font-specification:'Eras Bold ITC';letter-spacing:0px;word-spacing:0px;writing-mode:lr-tb;fill:#1e90ff;fill-opacity:1;stroke:none;stroke-width:0.26458332"
       id="path4599"
       inkscape:connector-curvature="0" />
    <path
       transform="matrix(-0.71633305,-1.1687482,1.1687482,-0.71633305,47.556656,454.05577)"
       inkscape:transform-center-y="0.84028063"
       inkscape:transform-center-x="-1.135315"
       d="m 138.05581,165.2753 -5.18179,-5.70175 7.52876,-1.63668 z"
       inkscape:randomized="0"
       inkscape:rounded="0"
       inkscape:flatsided="true"
       sodipodi:arg2="2.4039332"
       sodipodi:arg1="1.3567356"
       sodipodi:r2="2.2241256"
       sodipodi:r1="4.4482512"
       sodipodi:cy="160.92857"
       sodipodi:cx="137.11087"
       sodipodi:sides="3"
       id="path4589"
       style="opacity:1;fill:#1e90ff;fill-opacity:1;fill-rule:nonzero;stroke:none;stroke-width:2.5;stroke-linecap:round;stroke-linejoin:miter;stroke-miterlimit:4;stroke-dasharray:none;stroke-dashoffset:0;stroke-opacity:1;paint-order:stroke fill markers"
       sodipodi:type="star" />
    <path
       sodipodi:type="star"
       style="opacity:1;fill:#1e90ff;fill-opacity:1;fill-rule:nonzero;stroke:none;stroke-width:2.5;stroke-linecap:round;stroke-linejoin:miter;stroke-miterlimit:4;stroke-dasharray:none;stroke-dashoffset:0;stroke-opacity:1;paint-order:stroke fill markers"
       id="path4591"
       sodipodi:sides="3"
       sodipodi:cx="137.11087"
       sodipodi:cy="160.92857"
       sodipodi:r1="4.4482512"
       sodipodi:r2="2.2241256"
       sodipodi:arg1="1.3567356"
       sodipodi:arg2="2.4039332"
       inkscape:flatsided="true"
       inkscape:rounded="0"
       inkscape:randomized="0"
       d="m 138.05581,165.2753 -5.18179,-5.70175 7.52876,-1.63668 z"
       inkscape:transform-center-x="0.97792613"
       inkscape:transform-center-y="-0.58819446"
       transform="matrix(0.77660072,1.1296002,-1.1296002,0.77660072,229.18759,-117.9412)" />
    <path
       inkscape:connector-curvature="0"
       style="opacity:1;fill:#000000;fill-opacity:1;fill-rule:nonzero;stroke:none;stroke-width:1.82514215;stroke-linecap:round;stroke-linejoin:miter;stroke-miterlimit:4;stroke-dasharray:none;stroke-dashoffset:0;stroke-opacity:1;paint-order:stroke fill markers"
       d="m 72.672557,203.52526 v 27.99829 h 28.091823 v -27.99829 z"
       id="path4557"
       inkscape:export-xdpi="47.811783"
       inkscape:export-ydpi="47.811783" />
    <path
       inkscape:connector-curvature="0"
       style="opacity:1;fill:#000000;fill-opacity:1;fill-rule:nonzero;stroke:none;stroke-width:1.82514215;stroke-linecap:round;stroke-linejoin:miter;stroke-miterlimit:4;stroke-dasharray:none;stroke-dashoffset:0;stroke-opacity:1;paint-order:stroke fill markers"
       d="m 104.76466,203.52526 v 27.99829 h 27.90785 v -27.99829 z"
       id="path4555"
       inkscape:export-xdpi="47.811783"
       inkscape:export-ydpi="47.811783" />
    <path
       inkscape:connector-curvature="0"
       style="opacity:1;fill:#000000;fill-opacity:1;fill-rule:nonzero;stroke:none;stroke-width:1.82514215;stroke-linecap:round;stroke-linejoin:miter;stroke-miterlimit:4;stroke-dasharray:none;stroke-dashoffset:0;stroke-opacity:1;paint-order:stroke fill markers"
       d="m 72.672557,235.52331 v 28.00243 h 28.091823 v -28.00243 z"
       id="path4553"
       inkscape:export-xdpi="47.811783"
       inkscape:export-ydpi="47.811783" />
    <path
       inkscape:connector-curvature="0"
       style="opacity:1;fill:#1e90ff;fill-opacity:1;fill-rule:nonzero;stroke:none;stroke-width:1.82514215;stroke-linecap:round;stroke-linejoin:miter;stroke-miterlimit:4;stroke-dasharray:none;stroke-dashoffset:0;stroke-opacity:1;paint-order:stroke fill markers"
       d="m 104.76466,235.52331 v 28.00243 h 27.90785 v -28.00243 z"
       id="rect4530"
       inkscape:export-xdpi="47.811783"
       inkscape:export-ydpi="47.811783" />
    <rect
       style="opacity:1;fill:#ffffff;fill-opacity:1;fill-rule:nonzero;stroke:none;stroke-width:8.03062534;stroke-linecap:round;stroke-linejoin:miter;stroke-miterlimit:4;stroke-dasharray:none;stroke-dashoffset:0;stroke-opacity:1;paint-order:stroke fill markers"
       id="rect4559"
       width="22"
       height="22"
       x="75.695412"
       y="206.40215"
       inkscape:export-xdpi="47.811783"
       inkscape:export-ydpi="47.811783" />
    <path
       transform="matrix(0.07544183,1.6868111,-1.6868111,0.07544183,385.06874,11.237943)"
       inkscape:transform-center-y="-2.057443"
       inkscape:transform-center-x="2.9960482"
       d="m 138.05581,165.2753 -5.18179,-5.70175 7.52876,-1.63668 z"
       inkscape:randomized="0"
       inkscape:rounded="0"
       inkscape:flatsided="true"
       sodipodi:arg2="2.4039332"
       sodipodi:arg1="1.3567356"
       sodipodi:r2="2.2241256"
       sodipodi:r1="4.4482512"
       sodipodi:cy="160.92857"
       sodipodi:cx="137.11087"
       sodipodi:sides="3"
       id="path4579"
       style="opacity:1;fill:#ffffff;fill-opacity:1;fill-rule:nonzero;stroke:none;stroke-width:2.5;stroke-linecap:round;stroke-linejoin:miter;stroke-miterlimit:4;stroke-dasharray:none;stroke-dashoffset:0;stroke-opacity:1;paint-order:stroke fill markers"
       sodipodi:type="star"
       inkscape:export-xdpi="47.811783"
       inkscape:export-ydpi="47.811783" />
    <path
       style="fill:none;stroke:#fefefe;stroke-width:4;stroke-linecap:butt;stroke-linejoin:miter;stroke-miterlimit:4;stroke-dasharray:none;stroke-opacity:1"
       d="m 123.43317,254.21814 -9.87527,-9.87527"
       id="path4581"
       inkscape:connector-curvature="0"
       inkscape:export-xdpi="47.811783"
       inkscape:export-ydpi="47.811783" />
    <path
       sodipodi:type="star"
       style="opacity:1;fill:#ffffff;fill-opacity:1;fill-rule:nonzero;stroke:none;stroke-width:2.5;stroke-linecap:round;stroke-linejoin:miter;stroke-miterlimit:4;stroke-dasharray:none;stroke-dashoffset:0;stroke-opacity:1;paint-order:stroke fill markers"
       id="path4590"
       sodipodi:sides="3"
       sodipodi:cx="137.11087"
       sodipodi:cy="160.92857"
       sodipodi:r1="4.4482512"
       sodipodi:r2="2.2241256"
       sodipodi:arg1="1.3567356"
       sodipodi:arg2="2.4039332"
       inkscape:flatsided="true"
       inkscape:rounded="0"
       inkscape:randomized="0"
       d="m 138.05581,165.2753 -5.18179,-5.70175 7.52876,-1.63668 z"
       inkscape:transform-center-x="-2.9960449"
       inkscape:transform-center-y="2.057439"
       transform="matrix(-0.07544183,-1.6868111,1.6868111,-0.07544183,-147.72067,487.55889)"
       inkscape:export-xdpi="47.811783"
       inkscape:export-ydpi="47.811783" />
    <g
       id="g5141"
       inkscape:export-xdpi="57.54533"
       inkscape:export-ydpi="57.54533">
      <path
         d="m 163.41647,241.77816 q -0.22393,-3.66903 -0.51676,-5.87389 1.92925,0.86127 3.42787,1.20578 1.51584,0.32729 2.65272,0.32729 1.49862,0 2.37712,-0.43064 0.89572,-0.44786 0.89572,-1.30914 0,-0.29283 -0.0861,-0.55121 -0.0861,-0.27561 -0.32728,-0.60289 -0.24116,-0.34451 -0.68902,-0.7407 l -3.23839,-2.82498 q -1.13688,-0.96462 -1.58474,-1.39526 -0.91295,-0.8785 -1.42972,-1.63642 -0.49954,-0.75792 -0.74069,-1.53307 -0.22393,-0.79237 -0.22393,-1.67087 0,-1.05075 0.36173,-2.04983 0.37896,-1.01631 1.11966,-1.8948 0.74069,-0.8785 1.9637,-1.51585 1.22301,-0.63734 2.61827,-0.86127 1.39527,-0.24116 2.87666,-0.24116 2.9111,0 6.33897,0.6718 0.0517,1.18855 0.12058,2.18763 0.0689,0.98185 0.32729,3.46232 -1.58475,-0.63734 -2.89388,-0.8785 -1.30914,-0.25838 -2.25654,-0.25838 -1.34359,0 -2.23931,0.49954 -0.8785,0.49954 -0.8785,1.24023 0,0.34451 0.1378,0.6718 0.1378,0.32728 0.51677,0.77515 0.37896,0.43063 0.99907,0.96462 0.62012,0.51677 1.94648,1.55029 l 1.24024,0.98186 q 0.55121,0.44786 1.18855,1.0852 0.63735,0.63734 1.10243,1.25746 0.46509,0.62012 0.70625,1.13688 0.25838,0.51677 0.37896,1.05076 0.12058,0.51676 0.12058,1.11965 0,1.5503 -0.7407,2.96279 -0.74069,1.39526 -2.10151,2.30821 -1.36081,0.89572 -2.99723,1.25746 -1.61919,0.36174 -3.42787,0.36174 -2.79053,0 -7.04522,-0.8096 z"
         style="font-style:normal;font-variant:normal;font-weight:normal;font-stretch:normal;font-size:35.27777863px;line-height:1.25;font-family:'Eras Bold ITC';-inkscape-font-specification:'Eras Bold ITC';letter-spacing:0px;word-spacing:0px;writing-mode:lr-tb;fill:#1e90ff;fill-opacity:1;stroke:none;stroke-width:0.26458332"
         id="path5132"
         inkscape:connector-curvature="0" />
      <path
         transform="matrix(-0.71633305,-1.1687482,1.1687482,-0.71633305,73.070049,513.58702)"
         inkscape:transform-center-y="0.84028063"
         inkscape:transform-center-x="-1.135315"
         d="m 138.05581,165.2753 -5.18179,-5.70175 7.52876,-1.63668 z"
         inkscape:randomized="0"
         inkscape:rounded="0"
         inkscape:flatsided="true"
         sodipodi:arg2="2.4039332"
         sodipodi:arg1="1.3567356"
         sodipodi:r2="2.2241256"
         sodipodi:r1="4.4482512"
         sodipodi:cy="160.92857"
         sodipodi:cx="137.11087"
         sodipodi:sides="3"
         id="path5134"
         style="opacity:1;fill:#1e90ff;fill-opacity:1;fill-rule:nonzero;stroke:none;stroke-width:2.5;stroke-linecap:round;stroke-linejoin:miter;stroke-miterlimit:4;stroke-dasharray:none;stroke-dashoffset:0;stroke-opacity:1;paint-order:stroke fill markers"
         sodipodi:type="star" />
      <path
         sodipodi:type="star"
         style="opacity:1;fill:#1e90ff;fill-opacity:1;fill-rule:nonzero;stroke:none;stroke-width:2.5;stroke-linecap:round;stroke-linejoin:miter;stroke-miterlimit:4;stroke-dasharray:none;stroke-dashoffset:0;stroke-opacity:1;paint-order:stroke fill markers"
         id="path5136"
         sodipodi:sides="3"
         sodipodi:cx="137.11087"
         sodipodi:cy="160.92857"
         sodipodi:r1="4.4482512"
         sodipodi:r2="2.2241256"
         sodipodi:arg1="1.3567356"
         sodipodi:arg2="2.4039332"
         inkscape:flatsided="true"
         inkscape:rounded="0"
         inkscape:randomized="0"
         d="m 138.05581,165.2753 -5.18179,-5.70175 7.52876,-1.63668 z"
         inkscape:transform-center-x="0.97792613"
         inkscape:transform-center-y="-0.58819446"
         transform="matrix(0.77660072,1.1296002,-1.1296002,0.77660072,254.70098,-58.40995)" />
    </g>
  </g>
</svg>
